<?xml version="1.0" encoding="UTF-8" standalone="no"?>
<!-- Created with Inkscape (http://www.inkscape.org/) -->

<svg
   width="67.73333mm"
   height="67.73333mm"
   viewBox="0 0 67.73333 67.73333"
   version="1.1"
   id="svg1"
   inkscape:version="1.4.2 (f4327f4, 2025-05-13)"
   sodipodi:docname="portfolio.svg"
   xmlns:inkscape="http://www.inkscape.org/namespaces/inkscape"
   xmlns:sodipodi="http://sodipodi.sourceforge.net/DTD/sodipodi-0.dtd"
   xmlns="http://www.w3.org/2000/svg"
   xmlns:svg="http://www.w3.org/2000/svg">
  <sodipodi:namedview
     id="namedview1"
     pagecolor="#505050"
     bordercolor="#eeeeee"
     borderopacity="1"
     inkscape:showpageshadow="0"
     inkscape:pageopacity="0"
     inkscape:pagecheckerboard="true"
     inkscape:deskcolor="#505050"
     inkscape:document-units="px"
     showgrid="false"
     inkscape:zoom="0.26318361"
     inkscape:cx="296.37104"
     inkscape:cy="237.47679"
     inkscape:current-layer="layer1">
    <inkscape:page
       x="0"
       y="0"
       width="67.73333"
       height="67.73333"
       id="page1"
       margin="0"
       bleed="0"
       inkscape:label="logo"
       inkscape:export-filename="exports\portfolio\og-image-en.png"
       inkscape:export-xdpi="96"
       inkscape:export-ydpi="96" />
  </sodipodi:namedview>
  <defs
     id="defs1" />
  <inkscape:templateinfo>
    <inkscape:name>Web Branding</inkscape:name>
    <inkscape:author>Matheus Mortari</inkscape:author>
    <inkscape:shortdesc>A complete sheet with favicon, logo and Open Graph image for web branding.</inkscape:shortdesc>
    <inkscape:date>2025-08-29</inkscape:date>
  </inkscape:templateinfo>
  <g
     inkscape:groupmode="layer"
     id="layer1"
     inkscape:label="logo-icon">
    <path
       style="font-size:38.6667px;line-height:5;font-family:'TAN - NIMBUS';-inkscape-font-specification:'TAN - NIMBUS, Normal';text-align:center;text-anchor:middle;fill:none;fill-rule:evenodd;stroke:#4c4083;stroke-width:1.48837;stroke-dasharray:none;paint-order:markers stroke fill"
       d="m 3.5866339,9.4323808 q 0,-5.3117921 -2.2464131,-7.5614965 H 21.682885 q 1.310415,0 2.21524,0.4061929 0.998412,0.4374497 1.809621,1.4997953 0.81121,1.0311202 1.404016,2.3746918 0.655221,1.4998034 1.341616,3.6557786 0.936011,2.9995981 1.404016,4.5931341 1.37283,4.718124 1.778421,6.030449 1.341616,4.311932 2.30884,7.217817 0.967212,-2.905885 2.308827,-7.217817 0.405605,-1.312325 1.778434,-6.030449 0.467993,-1.593536 1.404017,-4.5931341 0.686394,-2.1559752 1.341615,-3.6557786 0.592794,-1.3435716 1.40403,-2.3746864 0.842423,-1.0935942 1.778421,-1.4998007 0.904811,-0.4061929 2.246426,-0.4061929 H 66.393101 Q 64.177875,4.0893524 64.177875,9.4323808 V 58.300927 q 0,5.343061 2.215226,7.561518 H 44.989597 q 2.246454,-2.249703 2.246454,-7.561518 V 21.055853 q 0,-6.967831 -2.371241,-6.967831 -2.995235,0 -8.892131,24.309285 -0.592807,2.280957 -1.466417,6.155451 -0.686408,3.093341 -1.43523,6.061693 -0.436792,1.781016 -1.216801,4.343176 -0.717608,2.437182 -1.404016,3.437058 -0.655222,0.99986 -1.372817,0.99986 -0.405618,0 -0.967224,-0.562423 -0.53042,-0.531195 -1.216814,-1.9685 -0.748822,-1.562293 -1.185614,-2.624644 -0.624007,-1.499817 -1.310416,-3.562036 -0.780008,-2.343447 -1.310429,-3.843242 -0.06256,-0.187475 -1.435216,-4.37442 -0.312004,-0.999877 -0.779996,-2.405938 -0.436819,-1.406067 -0.59282,-1.843503 0,-0.06257 -0.09351,-0.281212 -0.06243,-0.249962 -0.24959,-0.718665 -0.156016,-0.499927 -0.312003,-0.96861 -0.187202,-0.593675 -0.53042,-1.562292 -0.312003,-0.968623 -0.436805,-1.34357 -0.779995,-2.499671 -1.092013,-3.343322 -0.87361,-2.499673 -1.310415,-3.718247 -0.187202,-0.562433 -0.655208,-1.74978 -0.467991,-1.218596 -0.686407,-1.812258 -0.686409,-1.874751 -1.435217,-3.405791 -0.655208,-1.374823 -1.372816,-2.655902 -0.686409,-1.21859 -1.310429,-1.906009 -0.592794,-0.656159 -1.1232002,-0.656159 -2.3712276,0 -2.3712276,6.967831 0,5.686748 1.4976174,10.998556 1.4664174,5.186797 3.6192564,9.061292 2.308814,4.186951 4.243249,7.155304 2.184025,3.374566 3.650443,6.40541 1.497617,3.093339 1.497617,5.561774 0,2.718394 -2.028024,4.186951 -1.996836,1.437305 -5.054471,1.437305 H 1.3403289 q 2.246413,-2.249703 2.246413,-7.561518 z"
       id="path7-7"
       aria-label="M"
       inkscape:label="icon-shadow" />
    <path
       style="font-size:38.6667px;line-height:5;font-family:'TAN - NIMBUS';-inkscape-font-specification:'TAN - NIMBUS, Normal';text-align:center;text-anchor:middle;fill:#ebebeb;fill-opacity:1;fill-rule:evenodd;stroke:none;stroke-width:2.31524;paint-order:markers stroke fill"
       d="m 3.5866516,9.4323808 q 0,-5.311784 -2.2464128,-7.5614965 H 21.682903 q 1.310416,0 2.215239,0.4061929 0.998412,0.4374578 1.809621,1.4998007 0.81121,1.031123 1.404017,2.3746919 0.655221,1.4998033 1.341616,3.6557731 0.936024,2.9996061 1.404029,4.5931421 1.372816,4.718124 1.778408,6.030448 1.341629,4.311931 2.308839,7.21781 0.967226,-2.905879 2.308841,-7.21781 0.405605,-1.312324 1.778421,-6.030448 0.467992,-1.593536 1.404016,-4.5931421 0.686395,-2.1559698 1.341615,-3.6557731 0.592808,-1.3435689 1.404017,-2.3746919 0.842424,-1.0935942 1.778421,-1.4998007 0.904824,-0.4061929 2.246439,-0.4061929 H 66.393091 Q 64.177879,4.0893524 64.177879,9.4323808 V 58.300935 q 0,5.343053 2.215212,7.56151 H 44.989615 q 2.24644,-2.249703 2.24644,-7.56151 V 21.055861 q 0,-6.967833 -2.371228,-6.967833 -2.995249,0 -8.892131,24.309287 -0.592806,2.280957 -1.46643,6.15545 -0.686395,3.093342 -1.435203,6.061694 -0.436806,1.781013 -1.216801,4.343176 -0.717622,2.437181 -1.40403,3.437058 -0.655208,0.999852 -1.372816,0.999852 -0.405618,0 -0.967225,-0.562416 -0.530406,-0.531194 -1.216814,-1.968499 -0.748822,-1.562294 -1.185614,-2.624645 -0.624007,-1.499818 -1.310415,-3.562039 -0.780009,-2.343444 -1.310428,-3.843239 -0.06256,-0.187475 -1.435217,-4.374422 -0.312004,-0.999874 -0.779996,-2.405943 -0.436818,-1.406059 -0.59282,-1.843498 0,-0.06257 -0.09351,-0.281213 -0.06243,-0.249966 -0.249602,-0.718661 -0.156002,-0.499929 -0.311991,-0.96861 -0.187202,-0.593683 -0.53042,-1.562292 -0.311999,-0.968631 -0.4368,-1.343578 Q 17.876567,30.835819 17.56455,29.992174 16.690939,27.492503 16.254134,26.273926 16.066932,25.711488 15.598927,24.524141 15.130921,23.305552 14.912505,22.711889 14.226098,20.83714 13.477288,19.306092 12.822081,17.931277 12.104472,16.650197 11.418065,15.4316 10.794044,14.744189 10.20125,14.088028 9.6708441,14.088028 q -2.3712277,0 -2.3712277,6.967833 0,5.686748 1.497604,10.998548 1.4664306,5.186805 3.6192696,9.061299 2.308813,4.186952 4.243249,7.155305 2.184026,3.374566 3.650429,6.40541 1.497631,3.09334 1.497631,5.561766 0,2.718394 -2.028023,4.186951 -1.996838,1.437305 -5.054473,1.437305 H 1.3403334 q 2.2464128,-2.249703 2.2464128,-7.56151 z"
       id="text1-1"
       aria-label="M"
       inkscape:label="icon" />
  </g>
</svg>
