<?xml version="1.0" encoding="UTF-8" standalone="no"?>
<svg
   id="visual"
   viewBox="0 0 900 254"
   width="900"
   height="254"
   version="1.1"
   sodipodi:docname="footer-bg.svg"
   inkscape:version="1.4.2 (f4327f4, 2025-05-13)"
   xmlns:inkscape="http://www.inkscape.org/namespaces/inkscape"
   xmlns:sodipodi="http://sodipodi.sourceforge.net/DTD/sodipodi-0.dtd"
   xmlns="http://www.w3.org/2000/svg"
   xmlns:svg="http://www.w3.org/2000/svg">
  <defs
     id="defs10" />
  <sodipodi:namedview
     id="namedview10"
     pagecolor="#505050"
     bordercolor="#eeeeee"
     borderopacity="1"
     inkscape:showpageshadow="0"
     inkscape:pageopacity="0"
     inkscape:pagecheckerboard="0"
     inkscape:deskcolor="#505050"
     inkscape:zoom="0.96"
     inkscape:cx="449.47917"
     inkscape:cy="-46.875"
     inkscape:current-layer="visual" />
  <path
     d="m 0,20 56,22 57,-42 56,43 56,-21 56,19 57,-16 56,5 56,12 56,8 57,-42 56,42 56,9 56,-34 57,11 56,-10 56,-7 V 254 H 844 788 731 675 619 563 506 450 394 338 281 225 169 113 56 0 Z"
     fill="#4c4083"
     id="path1" />
  <path
     d="m 0,68 56,-36 57,14 56,-8 56,12 56,-3 57,-9 56,22 56,3 56,7 57,-2 56,-39 56,10 56,16 57,11 56,-8 56,-19 V 254 H 844 788 731 675 619 563 506 450 394 338 281 225 169 113 56 0 Z"
     fill="#524687"
     id="path2" />
  <path
     d="m 0,54 56,33 57,4 56,-21 56,21 56,-8 57,13 56,-32 56,32 56,-35 57,29 56,-31 56,27 56,-2 57,-32 56,26 56,-14 V 254 H 844 788 731 675 619 563 506 450 394 338 281 225 169 113 56 0 Z"
     fill="#574b8b"
     id="path3" />
  <path
     d="m 0,115 56,-15 57,-2 56,-12 56,-8 56,13 57,19 56,-40 56,41 56,-14 57,7 56,9 56,2 56,3 57,-20 56,9 56,7 V 254 H 844 788 731 675 619 563 506 450 394 338 281 225 169 113 56 0 Z"
     fill="#5d518f"
     id="path4" />
  <path
     d="m 0,112 56,-6 57,7 56,11 56,-17 56,4 57,3 56,15 56,-35 56,3 57,2 56,23 56,-8 56,-11 57,23 56,-9 56,16 V 254 H 844 788 731 675 619 563 506 450 394 338 281 225 169 113 56 0 Z"
     fill="#605492"
     id="path5" />
  <path
     d="m 0,124 56,31 57,-25 56,8 56,-14 56,21 57,6 56,-7 56,-25 56,37 57,-14 56,-18 56,-6 56,31 57,4 56,1 56,-5 V 254 H 844 788 731 675 619 563 506 450 394 338 281 225 169 113 56 0 Z"
     fill="#605492"
     id="path6" />
  <path
     d="m 0,159 56,18 57,-24 56,-5 56,8 56,20 57,-9 56,3 56,-26 56,25 57,-8 56,1 56,-11 56,19 57,5 56,-28 56,28 v 79 H 844 788 731 675 619 563 506 450 394 338 281 225 169 113 56 0 Z"
     fill="#5d518f"
     id="path7" />
  <path
     d="m 0,179 56,-11 57,4 56,10 56,3 56,-10 57,6 56,-5 56,6 56,6 57,-4 56,-12 56,5 56,17 57,-12 56,-14 56,11 v 75 H 844 788 731 675 619 563 506 450 394 338 281 225 169 113 56 0 Z"
     fill="#574b8b"
     id="path8" />
  <path
     d="m 0,202 56,8 57,-20 56,21 56,-12 56,15 h 57 l 56,-24 56,24 h 56 l 57,-16 56,-2 56,-4 56,23 57,-13 56,1 56,-2 v 53 H 844 788 731 675 619 563 506 450 394 338 281 225 169 113 56 0 Z"
     fill="#524687"
     id="path9" />
  <path
     d="m 0,226 56,2 57,-10 56,17 h 56 l 56,-9 57,-7 56,4 56,1 56,1 57,7 56,-6 56,9 56,-20 57,6 56,12 56,-4 v 25 H 844 788 731 675 619 563 506 450 394 338 281 225 169 113 56 0 Z"
     fill="#4c4083"
     id="path10" />
</svg>
